<svg xmlns="http://www.w3.org/2000/svg" width="16" height="16" viewBox="0 0 16 16" fill="none">
  <path fill-rule="evenodd" clip-rule="evenodd" d="M3.04 8.07C3.02 8.04 3.01 8.02 3.01 8C3.01 7.98 3.02 7.96 3.04 7.93C3.08 7.83 3.15 7.69 3.27 7.52C3.5 7.18 3.86 6.78 4.32 6.4C5.26 5.63 6.54 5 8 5C9.46 5 10.74 5.63 11.68 6.4C12.14 6.78 12.5 7.18 12.73 7.52C12.85 7.69 12.92 7.83 12.96 7.93C12.98 7.96 12.99 7.98 12.99 8C12.99 8.02 12.98 8.04 12.96 8.07C12.92 8.17 12.85 8.31 12.73 8.48C12.5 8.82 12.14 9.22 11.68 9.6C10.74 10.37 9.46 11 8 11C6.54 11 5.26 10.37 4.32 9.6C3.86 9.22 3.5 8.82 3.27 8.48C3.15 8.31 3.08 8.17 3.04 8.07ZM2 8C2 7 4.5 4 8 4C11.5 4 14 7 14 8C14 9 11.5 12 8 12C4.5 12 2 9 2 8ZM8 9C8.55 9 9 8.55 9 8C9 7.45 8.55 7 8 7C7.45 7 7 7.45 7 8C7 8.55 7.45 9 8 9Z" fill="currentColor"/>
</svg>
