<svg xmlns="http://www.w3.org/2000/svg" width="24" height="24" viewBox="0 0 24 24" fill="none">
  <path fill-rule="evenodd" clip-rule="evenodd" d="M14.28 10L14.05 9.32L12 3.16L9.95 9.32L9.72 10H9L3.16 10L7.99 13.4L8.6 13.82L8.37 14.53L6.44 20.34L11.41 16.69L12 16.26L12.59 16.69L17.56 20.34L15.63 14.53L15.4 13.82L16.01 13.4L20.84 10H15H14.28ZM9 9H3.16C2.18 9 1.79 10.26 2.59 10.82L7.42 14.21L5.49 20.02C5.18 20.95 6.24 21.72 7.03 21.15L12 17.5L16.97 21.15C17.76 21.72 18.82 20.95 18.51 20.02L16.58 14.21L21.41 10.82C22.21 10.26 21.82 9 20.84 9H15L12.95 2.85C12.64 1.93 11.36 1.93 11.05 2.85L9 9Z" fill="currentColor"/>
</svg>
